<?xml version="1.0" encoding="UTF-8"?><svg id="Layer_1" xmlns="http://www.w3.org/2000/svg" viewBox="0 0 144 216"><defs><style>.cls-1{letter-spacing:0em;}.cls-2,.cls-3,.cls-4{stroke:#3b55a3;}.cls-2,.cls-4{fill:none;stroke-linecap:round;stroke-linejoin:round;}.cls-5{letter-spacing:-.01em;}.cls-6{letter-spacing:-.03em;}.cls-7{fill:#fde3cc;}.cls-8,.cls-9,.cls-3,.cls-10{fill:#3b55a3;}.cls-9{font-size:10.35px;}.cls-9,.cls-3,.cls-10{font-family:CoHeadline-Regular, 'Co Headline';}.cls-11{letter-spacing:0em;}.cls-12{letter-spacing:0em;}.cls-3{stroke-miterlimit:10;stroke-width:.1px;}.cls-3,.cls-10{font-size:6.09px;}.cls-13{letter-spacing:0em;}.cls-4{stroke-width:2px;}.cls-14{letter-spacing:0em;}.cls-15{letter-spacing:-.02em;}.cls-16{letter-spacing:-.02em;}</style></defs><rect class="cls-7" y="0" width="144" height="216"/><g><g><g><path class="cls-8" d="m128.4,198.23c-.48,0-.76.14-1.21.57v-.48h0c-.72,0-1.3.58-1.3,1.3v6.37c0,.73.59,1.32,1.32,1.32h0v-7.25c.11-.45.34-.7.7-.7.45,0,.56.28.56,1.27v7.07c0,.43.35.77.77.77h.55v-8.27c0-1.35-.45-1.97-1.41-1.97Z"/><path class="cls-8" d="m135.02,204.11v-4.93c0-.75-.2-1.01-.28-1.13-.37-.45-.88-.67-1.67-.67-1.46,0-2.14.76-2.14,2.34v7.89c0,1.52.7,2.25,2.08,2.25s2-.73,2-2.2v-2.76h-1.35v2.59c0,.96-.11,1.15-.62,1.15-.56,0-.7-.25-.7-1.21v-3.33h2.68Zm-2.7-4.23c0-.84.2-1.19.7-1.19s.62.17.62.96l-.03,3.15h-1.27l-.03-2.93Z"/></g><path class="cls-8" d="m141.03,196.63h0s-3.28,0-3.28,0v13.28h-1.35v-13.28h-5.86c0-.7.57-1.27,1.27-1.27h7.96c.7,0,1.27.57,1.27,1.27Z"/></g><path class="cls-8" d="m124.39,195.25c1.44,0,2.78.41,3.92,1.13-.02,0-.04,0-.06,0-3.46,0-6.26,2.8-6.26,6.26s2.8,6.26,6.26,6.26c.02,0,.04,0,.06,0-1.14.71-2.48,1.13-3.92,1.13-4.08,0-7.39-3.31-7.39-7.39s3.31-7.39,7.39-7.39Z"/></g><g><path class="cls-8" d="m80.85,26.17c-.27-7.48,11.72-8.97,14.59-2.78,1.06,1.77.37,10.12.56,12.18h-3.54v-8.5c0-2.71-1.3-4.32-4.03-4.31-2.77,0-4.03,1.59-4.03,4.31v8.5h-3.54v-9.4Z"/><path class="cls-8" d="m77.43,38.72c0-.18,0-.37,0-.58,0-3.05.39-13.11-.52-14.63-2.86-6.2-14.86-4.71-14.59,2.78v21.26c-.27,7.48,11.72,8.97,14.59,2.78.91-1.52.53-7.97.52-11.02,0-.21,0-.4,0-.58Zm-3.51,7.92c0,2.71-1.3,4.32-4.03,4.31-2.77,0-4.04-1.58-4.04-4.31v-19.46c0-2.72,1.26-4.32,4.04-4.31,2.73,0,4.04,1.6,4.03,4.31v19.46Z"/><path class="cls-8" d="m95.42,52.67c-5.47,3.52-14.92,1.15-14.52-6.52-.62-7.6,10.73-11.67,14.68-5.18,2.55,6.62-6.13,7.19-10.89,6.77.62,4.15,6.42,4.2,9.43,2.45l1.3,2.48Zm-10.89-7.36c2.79.29,10.92.06,7.09-4.19-3.03-1.83-7.2.63-7.09,4.19Z"/><path class="cls-8" d="m103.43,41.49v2.46c.03-.88.06-1.72,0-2.46Z"/><text/><path class="cls-8" d="m99.89,21.25c.24,1.49-.13,9.75-.13,17.47v-19.11h2.01c-1.01,0-1.95.41-1.88,1.64Z"/><path class="cls-8" d="m103.43,43.95v4.27c-.15-1.28-.06-2.82,0-4.27Z"/><path class="cls-8" d="m110.44,52.66c-1.27,1.02-3.29,1.61-5.19,1.58h0c-3.03,0-5.49-2.46-5.49-5.49v-10.04c0-7.71.36-15.97.13-17.47-.07-1.23.87-1.64,1.88-1.64.59,0,1.21.14,1.66.34v15.63h6.46v3.33h-6.46v5.05c-.06,1.45-.15,2.99,0,4.27.28,2.49,1.47,4.02,5.59,2.09l1.43,2.36Z"/></g><text class="cls-3" transform="translate(34.4 185.36)"><tspan x="0" y="0">WW</tspan><tspan class="cls-6" x="12.21" y="0">W</tspan><tspan x="18.13" y="0">.Monet-Design.O</tspan><tspan class="cls-11" x="67.69" y="0">c</tspan><tspan x="70.7" y="0">om</tspan></text><text class="cls-9" transform="translate(28.14 68.52)"><tspan x="0" y="0">G</tspan><tspan class="cls-5" x="7.44" y="0">r</tspan><tspan x="11.61" y="0">aphic Designer</tspan></text><g><path class="cls-8" d="m36.04,113.99c1.46,0,1.63,0,2.21.03,1.48.07,2.18.77,2.24,2.24.03.58.03.75.03,2.21s0,1.63-.03,2.21c-.07,1.47-.76,2.18-2.24,2.24-.58.03-.75.03-2.21.03s-1.63,0-2.21-.03c-1.49-.07-2.18-.77-2.24-2.24-.03-.58-.03-.75-.03-2.21s0-1.63.03-2.21c.07-1.47.76-2.18,2.24-2.24.58-.03.75-.03,2.21-.03Zm0-.99c-1.49,0-1.67,0-2.26.03-1.99.09-3.09,1.19-3.18,3.18-.03.58-.03.77-.03,2.26s0,1.67.03,2.26c.09,1.99,1.19,3.09,3.18,3.18.58.03.77.03,2.26.03s1.67,0,2.26-.03c1.99-.09,3.09-1.19,3.18-3.18.03-.58.03-.77.03-2.26s0-1.67-.03-2.26c-.09-1.99-1.19-3.09-3.18-3.18-.58-.03-.77-.03-2.26-.03Zm0,2.66c-1.55,0-2.81,1.26-2.81,2.81s1.26,2.81,2.81,2.81,2.81-1.26,2.81-2.81-1.26-2.81-2.81-2.81Zm0,4.63c-1.01,0-1.82-.82-1.82-1.82s.82-1.82,1.82-1.82,1.82.82,1.82,1.82-.82,1.82-1.82,1.82Zm2.92-5.4c-.36,0-.66.29-.66.66s.29.66.66.66.66-.29.66-.66-.29-.66-.66-.66Z"/><text class="cls-10" transform="translate(44.46 132.36)"><tspan x="0" y="0">monet</tspan><tspan class="cls-15" x="18.93" y="0">2</tspan><tspan class="cls-14" x="22.23" y="0">435</tspan><tspan class="cls-13" x="33.08" y="0">@</tspan><tspan class="cls-14" x="39.2" y="0">gmail.</tspan><tspan class="cls-12" x="56.82" y="0">c</tspan><tspan class="cls-1" x="59.83" y="0">om</tspan></text><text class="cls-10" transform="translate(44.46 120.36)"><tspan x="0" y="0">Kandy2099</tspan><tspan class="cls-16" x="33.63" y="0">9</tspan><tspan class="cls-1" x="37.29" y="0">6</tspan></text><path class="cls-8" d="m36.04,125.89c2.7,0,4.9,2.2,4.9,4.9s-2.2,4.9-4.9,4.9-4.9-2.2-4.9-4.9,2.2-4.9,4.9-4.9Zm0-.98c-3.25,0-5.88,2.63-5.88,5.88s2.63,5.88,5.88,5.88,5.88-2.63,5.88-5.88-2.63-5.88-5.88-5.88Zm0,6.15l-2.86-2.18s-.01-.06.02-.06h5.68s.05.04.02.06l-2.86,2.18Zm0,.63l-2.94-2.27v3.32h5.88v-3.32l-2.94,2.27Z"/></g><path class="cls-4" d="m113.09,208H13.52c-3.88,0-7.02-3.14-7.02-7.02V15.02c0-3.88,3.14-7.02,7.02-7.02h116.97c3.88,0,7.02,3.14,7.02,7.02v175.94"/><path class="cls-8" d="m33,80c-4.6,0-8.45,4.64-9.76,11-1.31-6.36-5.16-11-9.76-11,4.6,0,8.45-4.64,9.76-11,1.31,6.36,5.16,11,9.76,11Z"/><path class="cls-2" d="m38.62,91.81c0-2.26-1.85-4.14-4.38-4.79,2.53-.64,4.38-2.53,4.38-4.79,0,2.26,1.85,4.14,4.38,4.79-2.53.64-4.38,2.53-4.38,4.79Z"/><path class="cls-8" d="m128,76.49c-2.72,0-4.99,2.74-5.76,6.49-.77-3.75-3.04-6.49-5.76-6.49,2.72,0,4.99-2.74,5.76-6.49.77,3.75,3.04,6.49,5.76,6.49Z"/><path class="cls-2" d="m115.12,34c0-4.25-2.9-7.79-6.88-9,3.98-1.21,6.88-4.75,6.88-9,0,4.25,2.9,7.79,6.88,9-3.98,1.21-6.88,4.75-6.88,9Z"/><path class="cls-8" d="m56.99,25.57v28.21h-3.5v-27.01c.03-2.56-1.18-3.92-3.56-3.96-2.43.05-3.73,1.64-3.68,4.3v26.67h-3.57v-26.67c.05-2.66-1.25-4.24-3.68-4.3-2.38.04-3.59,1.4-3.56,3.96v27.01h-3.5v-28.21c-.3-6.4,9.44-7.93,12.53-3.17,3.08-4.76,12.83-3.23,12.53,3.17Z"/></svg>