<?xml version="1.0" encoding="UTF-8"?><svg id="Layer_1" xmlns="http://www.w3.org/2000/svg" viewBox="0 0 144 216"><defs><style>.cls-1{fill:#3b55a3;}.cls-2{stroke-miterlimit:10;}.cls-2,.cls-3{fill:none;stroke:#3b55a3;}.cls-3{stroke-linecap:round;stroke-linejoin:round;stroke-width:.5px;}</style></defs><path class="cls-1" d="m87.13,89.94c-.27-7.48,11.72-8.97,14.59-2.78,1.06,1.77.37,10.12.56,12.18h-3.54v-8.5c0-2.71-1.3-4.32-4.03-4.31-2.77,0-4.03,1.59-4.03,4.31v8.5h-3.54v-9.4Z"/><path class="cls-1" d="m101.69,116.43c-5.47,3.52-14.92,1.15-14.52-6.52-.62-7.6,10.73-11.67,14.68-5.18,2.55,6.62-6.13,7.19-10.89,6.77.62,4.15,6.42,4.2,9.43,2.45l1.3,2.48Zm-10.89-7.36c2.79.29,10.92.06,7.09-4.19-3.03-1.83-7.2.63-7.09,4.19Z"/><path class="cls-1" d="m109.7,105.26v2.46c.03-.88.06-1.72,0-2.46Z"/><text/><path class="cls-1" d="m106.16,85.02c.24,1.49-.13,9.75-.13,17.47v-19.11h2.01c-1.01,0-1.95.41-1.88,1.64Z"/><path class="cls-1" d="m109.7,107.72v4.27c-.15-1.28-.06-2.82,0-4.27Z"/><path class="cls-1" d="m116.72,116.43c-1.27,1.02-3.29,1.61-5.19,1.58h0c-3.03,0-5.49-2.46-5.49-5.49v-10.04c0-7.71.36-15.97.13-17.47-.07-1.23.87-1.64,1.88-1.64.59,0,1.21.14,1.66.34v15.63h6.46v3.33h-6.46v5.05c-.06,1.45-.15,2.99,0,4.27.28,2.49,1.47,4.02,5.59,2.09l1.43,2.36Z"/><path class="cls-3" d="m77.49,102.77c0-1.83-1.25-3.36-2.97-3.88,1.72-.52,2.97-2.05,2.97-3.88,0,1.83,1.25,3.36,2.97,3.88-1.72.52-2.97,2.05-2.97,3.88Z"/><path class="cls-1" d="m52.27,89.33v28.21h-3.5v-27.01c.03-2.56-1.18-3.92-3.56-3.96-2.43.05-3.73,1.64-3.68,4.3v26.67h-3.57v-26.67c.05-2.66-1.25-4.24-3.68-4.3-2.38.04-3.59,1.4-3.56,3.96v27.01h-3.5v-28.21c-.3-6.4,9.44-7.93,12.53-3.17,3.08-4.76,12.83-3.23,12.53,3.17Z"/><path class="cls-2" d="m78.19,114.01c-9.41,0-17.03-7.63-17.03-17.03,0-4.67,1.88-8.9,4.93-11.98-6.47,2.41-11.09,8.65-11.09,15.97,0,9.41,7.63,17.03,17.03,17.03,4.74,0,9.02-1.94,12.11-5.06-1.85.69-3.86,1.07-5.95,1.07Z"/></svg>