<?xml version="1.0" encoding="UTF-8"?><svg id="Layer_2" xmlns="http://www.w3.org/2000/svg" xmlns:xlink="http://www.w3.org/1999/xlink" viewBox="0 0 144 216"><defs><style>.cls-1,.cls-2,.cls-3,.cls-4{fill:none;}.cls-5{letter-spacing:0em;}.cls-2,.cls-4{stroke:#3b55a3;stroke-linecap:round;stroke-linejoin:round;}.cls-6{clip-path:url(#clippath);}.cls-7{letter-spacing:0em;}.cls-8{letter-spacing:0em;}.cls-9{letter-spacing:0em;}.cls-10{fill:#fde3cc;}.cls-11{fill:#3b55a3;}.cls-12{font-size:10.35px;}.cls-12,.cls-13{fill:#3b55a4;font-family:CoHeadline-Regular, 'Co Headline';}.cls-3{stroke:#3b55a4;stroke-miterlimit:10;stroke-width:.1px;}.cls-14{clip-path:url(#clippath-1);}.cls-15{clip-path:url(#clippath-4);}.cls-16{clip-path:url(#clippath-3);}.cls-17{clip-path:url(#clippath-2);}.cls-4{stroke-width:2px;}.cls-18{letter-spacing:0em;}.cls-19{letter-spacing:-.02em;}.cls-20{letter-spacing:-.02em;}.cls-21{letter-spacing:-.03em;}.cls-13{font-size:6.09px;}</style><clipPath id="clippath"><rect class="cls-1" width="144" height="216"/></clipPath><clipPath id="clippath-1"><rect class="cls-1" width="144" height="216"/></clipPath><clipPath id="clippath-2"><rect class="cls-1" width="144" height="216"/></clipPath><clipPath id="clippath-3"><rect class="cls-1" width="144" height="216"/></clipPath><clipPath id="clippath-4"><rect class="cls-1" width="144" height="216"/></clipPath></defs><g id="Layer_1-2"><g class="cls-6"><rect class="cls-10" width="144" height="216"/><g class="cls-14"><path class="cls-11" d="m128.4,198.23c-.48,0-.76.14-1.21.57v-.48c-.72,0-1.3.58-1.3,1.3v6.37c0,.73.59,1.32,1.32,1.32v-7.25c.11-.45.34-.7.71-.7.45,0,.56.28.56,1.27v7.07c0,.43.35.77.77.77h.55v-8.27c0-1.35-.45-1.97-1.41-1.97"/><path class="cls-11" d="m135.02,204.11v-4.93c0-.75-.2-1.01-.28-1.13-.37-.45-.88-.67-1.66-.67-1.46,0-2.14.76-2.14,2.34v7.89c0,1.52.71,2.25,2.08,2.25s2-.73,2-2.2v-2.76h-1.35v2.59c0,.96-.11,1.15-.62,1.15-.56,0-.71-.25-.71-1.21v-3.33h2.68Zm-2.7-4.23c0-.84.2-1.18.71-1.18s.62.17.62.96l-.03,3.15h-1.27l-.03-2.93Z"/><path class="cls-11" d="m141.03,196.63h-3.28v13.28h-1.35v-13.28h-5.86c0-.7.57-1.27,1.27-1.27h7.96c.7,0,1.27.57,1.27,1.27"/><path class="cls-11" d="m124.39,195.25c1.44,0,2.79.41,3.92,1.13-.02,0-.04,0-.06,0-3.46,0-6.26,2.8-6.26,6.26s2.8,6.26,6.26,6.26c.02,0,.04,0,.06,0-1.14.71-2.48,1.13-3.92,1.13-4.08,0-7.39-3.31-7.39-7.39s3.31-7.39,7.39-7.39"/><path class="cls-11" d="m80.85,26.17c-.27-7.48,11.72-8.97,14.59-2.78,1.06,1.77.37,10.12.56,12.18h-3.54v-8.5c0-2.71-1.3-4.32-4.03-4.31-2.77,0-4.03,1.59-4.03,4.31v8.5h-3.54v-9.4Z"/><path class="cls-11" d="m77.43,38.72c0-.18,0-.37,0-.58,0-3.05.39-13.11-.52-14.63-2.86-6.2-14.86-4.71-14.59,2.78v21.26c-.27,7.48,11.73,8.97,14.59,2.78.91-1.52.53-7.97.52-11.02,0-.21,0-.4,0-.58m-3.51,7.92c0,2.71-1.3,4.32-4.03,4.31-2.77,0-4.04-1.58-4.04-4.31v-19.46c0-2.72,1.26-4.32,4.04-4.31,2.73,0,4.03,1.6,4.03,4.31v19.46Z"/><path class="cls-11" d="m95.42,52.67c-5.47,3.52-14.92,1.15-14.52-6.52-.62-7.6,10.73-11.67,14.68-5.18,2.55,6.62-6.13,7.19-10.89,6.77.62,4.15,6.42,4.2,9.44,2.45l1.3,2.48Zm-10.89-7.35c2.79.29,10.92.06,7.09-4.19-3.04-1.83-7.2.63-7.09,4.19"/><path class="cls-11" d="m103.43,41.49v2.46c.03-.88.06-1.72,0-2.46"/><path class="cls-11" d="m58.9,25.74v28.51h-3.54v-27.3c.03-2.59-1.19-3.96-3.6-4-2.46.05-3.77,1.66-3.72,4.34v26.96h-3.61v-26.96c.05-2.68-1.26-4.29-3.72-4.34-2.41.04-3.63,1.41-3.6,4v27.3h-3.54v-28.51c-.3-6.47,9.55-8.01,12.67-3.2,3.12-4.81,12.97-3.27,12.67,3.2"/><path class="cls-11" d="m99.89,21.25c.24,1.49-.12,9.75-.12,17.47v-19.11h2c-1.01,0-1.94.41-1.88,1.64"/><path class="cls-11" d="m103.43,43.95v4.27c-.15-1.28-.06-2.82,0-4.27"/><path class="cls-11" d="m110.44,52.66c-1.27,1.01-3.29,1.61-5.19,1.58-3.03,0-5.49-2.46-5.49-5.49v-10.04c0-7.71.36-15.97.12-17.47-.07-1.23.87-1.64,1.88-1.64.59,0,1.21.14,1.66.34v15.63h6.46v3.33h-6.46v5.05c-.06,1.45-.15,2.99,0,4.27.28,2.49,1.47,4.02,5.59,2.08l1.43,2.36Z"/></g><text class="cls-13" transform="translate(34.4 185.36)"><tspan x="0" y="0">WW</tspan><tspan class="cls-21" x="12.21" y="0">W</tspan><tspan x="18.14" y="0">.Monet-Design.</tspan><tspan class="cls-7" x="62.7" y="0">c</tspan><tspan class="cls-5" x="65.72" y="0">om</tspan></text><g class="cls-17"><path class="cls-3" d="m36.58,185.36c.03-.08.06-.18.11-.31.04-.13.09-.28.14-.44.05-.16.1-.34.16-.53.05-.19.11-.37.16-.56.05-.19.1-.37.15-.56.05-.18.09-.35.13-.5.04.15.08.32.12.5.05.18.1.37.15.56.05.19.1.38.16.57.06.19.11.36.15.53.05.16.09.31.13.43.04.13.07.23.1.3h.82c.13-.33.26-.67.4-1.04.14-.36.27-.73.39-1.08.12-.36.24-.7.35-1.03.11-.33.2-.63.27-.9-.02-.01-.06-.03-.13-.07s-.17-.05-.28-.05c-.13,0-.23.03-.3.09-.07.06-.12.16-.16.3-.05.17-.11.37-.17.59s-.14.47-.22.72c-.08.26-.16.52-.25.79-.09.27-.18.53-.27.79-.08-.26-.16-.53-.23-.82-.08-.29-.15-.57-.23-.86-.07-.28-.14-.55-.21-.81-.06-.26-.12-.5-.17-.71-.02-.01-.07-.03-.14-.06-.07-.02-.16-.04-.25-.04-.14,0-.24.03-.3.1-.06.07-.11.16-.14.27-.03.11-.07.28-.13.51-.06.23-.13.48-.21.75-.08.28-.16.56-.24.85-.08.29-.16.56-.24.8-.06-.15-.12-.32-.18-.51-.06-.19-.13-.38-.19-.59-.07-.2-.13-.4-.2-.6-.07-.2-.13-.4-.19-.58-.06-.19-.11-.36-.16-.52-.05-.16-.08-.3-.11-.41-.02,0-.05-.02-.11-.05-.06-.02-.14-.04-.23-.04-.12,0-.21.03-.28.09s-.1.15-.1.25c0,.08.02.18.06.29.04.11.08.24.12.39.02.07.06.17.11.32.05.14.11.31.17.5.06.19.14.39.21.6s.15.43.24.64c.08.21.15.41.23.6.07.19.14.35.19.49h.81Z"/><path class="cls-3" d="m42.69,185.36c.03-.08.06-.18.11-.31.04-.13.09-.28.14-.44.05-.16.1-.34.16-.53.05-.19.11-.37.16-.56.05-.19.1-.37.15-.56.05-.18.09-.35.13-.5.04.15.08.32.12.5.05.18.1.37.15.56.05.19.1.38.16.57.06.19.11.36.15.53.05.16.09.31.13.43.04.13.07.23.1.3h.82c.13-.33.26-.67.4-1.04.14-.36.27-.73.39-1.08.12-.36.24-.7.35-1.03.11-.33.2-.63.27-.9-.02-.01-.06-.03-.13-.07s-.17-.05-.28-.05c-.13,0-.23.03-.3.09-.07.06-.12.16-.16.3-.05.17-.11.37-.17.59s-.14.47-.22.72c-.08.26-.16.52-.25.79-.09.27-.18.53-.27.79-.08-.26-.16-.53-.23-.82-.08-.29-.15-.57-.23-.86-.07-.28-.14-.55-.21-.81-.06-.26-.12-.5-.17-.71-.02-.01-.07-.03-.14-.06-.07-.02-.16-.04-.25-.04-.14,0-.24.03-.3.1-.06.07-.11.16-.14.27-.03.11-.07.28-.13.51-.06.23-.13.48-.21.75-.08.28-.16.56-.24.85-.08.29-.16.56-.24.8-.06-.15-.12-.32-.18-.51-.06-.19-.13-.38-.19-.59-.07-.2-.13-.4-.2-.6-.07-.2-.13-.4-.19-.58-.06-.19-.11-.36-.16-.52-.05-.16-.08-.3-.11-.41-.02,0-.05-.02-.11-.05-.06-.02-.14-.04-.23-.04-.12,0-.21.03-.28.09s-.1.15-.1.25c0,.08.02.18.06.29.04.11.08.24.12.39.02.07.06.17.11.32.05.14.11.31.17.5.06.19.14.39.21.6s.15.43.24.64c.08.21.15.41.23.6.07.19.14.35.19.49h.81Z"/><path class="cls-3" d="m48.79,185.36c.03-.08.06-.18.11-.31.04-.13.09-.28.14-.44.05-.16.1-.34.16-.53.05-.19.11-.37.16-.56.05-.19.1-.37.15-.56.05-.18.09-.35.13-.5.04.15.08.32.12.5.05.18.09.37.15.56.05.19.1.38.16.57.06.19.11.36.15.53.05.16.09.31.13.43.04.13.07.23.1.3h.82c.13-.33.26-.67.4-1.04.14-.36.27-.73.39-1.08.12-.36.24-.7.35-1.03.11-.33.2-.63.27-.9-.02-.01-.06-.03-.13-.07s-.17-.05-.28-.05c-.13,0-.23.03-.3.09-.07.06-.12.16-.16.3-.05.17-.11.37-.17.59s-.14.47-.22.72c-.08.26-.16.52-.25.79-.09.27-.18.53-.27.79-.08-.26-.16-.53-.23-.82-.08-.29-.15-.57-.23-.86-.07-.28-.14-.55-.21-.81-.06-.26-.12-.5-.17-.71-.02-.01-.07-.03-.14-.06-.07-.02-.16-.04-.25-.04-.14,0-.24.03-.3.1-.06.07-.11.16-.14.27-.03.11-.07.28-.13.51-.06.23-.13.48-.21.75-.08.28-.16.56-.24.85-.08.29-.16.56-.24.8-.06-.15-.12-.32-.18-.51-.06-.19-.13-.38-.19-.59-.07-.2-.13-.4-.2-.6-.07-.2-.13-.4-.19-.58-.06-.19-.11-.36-.16-.52-.05-.16-.08-.3-.11-.41-.02,0-.05-.02-.11-.05-.06-.02-.14-.04-.23-.04-.12,0-.21.03-.28.09s-.1.15-.1.25c0,.08.02.18.06.29.04.11.08.24.12.39.02.07.06.17.11.32.05.14.11.31.17.5.06.19.14.39.21.6s.15.43.24.64c.08.21.15.41.23.6.07.19.14.35.19.49h.81Z"/><path class="cls-3" d="m53.12,185.32c.09.1.21.14.33.14.06,0,.12-.01.18-.04.06-.03.11-.06.15-.1s.08-.09.1-.15c.03-.06.04-.12.04-.19,0-.13-.05-.24-.14-.33-.09-.09-.2-.14-.33-.14-.06,0-.13.01-.19.04-.06.02-.11.06-.15.1-.04.04-.08.09-.1.15-.02.06-.04.12-.04.18,0,.13.05.24.14.34Z"/><path class="cls-3" d="m55.49,185.36c0-.1,0-.23.02-.39,0-.16.02-.34.03-.54.01-.2.02-.4.03-.62.01-.21.02-.42.03-.62.01-.2.02-.38.03-.54,0-.16.02-.29.02-.39.09.16.18.34.29.56.11.21.21.43.32.65.11.22.21.42.3.62.09.19.16.35.21.45h.6c.04-.07.08-.17.14-.3.06-.12.12-.26.19-.4.07-.14.15-.29.22-.45s.15-.31.22-.45c.07-.14.14-.28.2-.4.06-.12.11-.22.15-.29,0,.06.01.17.02.33,0,.16.02.34.03.55.01.21.02.43.04.66.01.23.03.46.04.67.01.21.02.4.03.56,0,.16.01.27.02.34h.71c0-.11-.02-.28-.03-.49-.01-.21-.02-.45-.04-.71-.02-.26-.03-.54-.05-.82-.02-.29-.03-.56-.04-.82-.01-.26-.03-.5-.04-.72-.01-.21-.02-.38-.03-.49-.02-.02-.07-.04-.15-.08-.08-.03-.18-.05-.3-.05-.13,0-.24.03-.33.09-.09.06-.16.15-.21.27-.05.1-.12.24-.21.43-.09.19-.19.38-.29.59-.1.21-.21.42-.31.62-.1.2-.19.38-.26.51-.08-.15-.17-.34-.29-.57-.12-.23-.23-.46-.35-.69-.12-.23-.22-.45-.32-.65-.1-.2-.17-.35-.22-.45-.03-.03-.09-.07-.17-.1-.08-.04-.18-.06-.31-.06-.11,0-.22.03-.3.09-.09.06-.14.16-.15.31,0,.1-.02.26-.03.45-.01.2-.03.42-.04.66-.01.25-.03.5-.04.77-.01.27-.03.52-.04.77-.01.24-.03.47-.04.67-.01.2-.02.35-.02.46h.72Z"/><path class="cls-3" d="m61.33,184.76c-.11-.05-.22-.12-.3-.21-.08-.09-.15-.2-.2-.32-.05-.12-.07-.25-.07-.39s.02-.27.07-.4c.05-.12.11-.23.2-.32.08-.09.18-.16.3-.21.12-.05.25-.08.39-.08s.26.03.38.08c.12.05.22.12.3.21.08.09.15.2.19.32.05.12.07.26.07.4s-.02.27-.07.39c-.05.12-.11.22-.19.32-.08.09-.18.16-.3.21s-.24.08-.38.08-.27-.02-.39-.08Zm-.27-2.41c-.21.08-.38.19-.53.34-.15.14-.27.31-.35.51-.09.2-.13.41-.13.64s.04.44.13.64c.08.2.2.37.35.51.15.14.33.26.53.34.21.08.42.12.66.12s.46-.04.66-.12c.21-.08.38-.2.53-.34s.27-.32.35-.51c.08-.2.13-.41.13-.64s-.04-.44-.13-.64c-.08-.2-.2-.37-.35-.51-.15-.14-.33-.26-.53-.34-.2-.08-.42-.12-.66-.12s-.46.04-.66.12Z"/><path class="cls-3" d="m63.98,185.36h.69v-1.67c0-.28.07-.49.2-.63.13-.14.33-.22.59-.22s.46.07.59.22.2.35.2.63v1.67h.69v-1.85c0-.2-.04-.38-.11-.54-.07-.16-.18-.3-.31-.41-.13-.11-.29-.2-.47-.26-.18-.06-.38-.09-.6-.09s-.41.03-.59.09c-.18.06-.34.14-.47.26-.13.11-.24.25-.31.41-.08.16-.11.34-.11.54v1.85Z"/><path class="cls-3" d="m68.31,183.35c.04-.11.1-.21.18-.3.08-.09.17-.16.29-.21.11-.05.25-.08.4-.08.18,0,.34.04.46.12.12.08.19.19.19.35,0,.06-.01.12-.04.18-.02.06-.07.11-.15.15-.08.04-.19.08-.32.11-.14.03-.32.04-.54.04h-.26c-.08,0-.18,0-.27,0,0-.12.03-.23.07-.35Zm1.81,1.3s-.06.03-.11.06c-.05.02-.11.05-.18.07s-.15.04-.24.06c-.09.02-.19.02-.29.02-.31,0-.55-.06-.72-.19-.17-.13-.27-.3-.3-.5.08,0,.16,0,.23,0s.15,0,.23,0c.35,0,.64-.02.86-.07.23-.05.41-.11.54-.19.13-.08.23-.18.28-.3.05-.12.08-.24.08-.39s-.03-.27-.09-.39c-.06-.12-.14-.23-.25-.32-.11-.09-.25-.16-.41-.22-.16-.05-.35-.08-.56-.08-.24,0-.46.04-.66.12-.2.08-.38.19-.52.33-.15.14-.26.32-.35.52-.08.2-.12.42-.12.67,0,.26.04.48.13.68.08.2.2.36.35.5.15.14.32.24.52.31.2.07.41.1.64.1.16,0,.31-.01.45-.04.14-.02.25-.05.36-.08.1-.03.19-.07.26-.1.07-.04.12-.07.15-.09l-.26-.49Z"/><path class="cls-3" d="m71.03,184.45c0,.3.09.54.27.73.18.18.45.28.81.28.12,0,.24-.01.35-.03.11-.02.2-.05.29-.08.08-.03.16-.07.22-.1.06-.04.11-.07.14-.09l-.28-.46s-.12.07-.22.1c-.1.04-.21.06-.33.06-.07,0-.14,0-.21-.02-.07-.02-.13-.05-.18-.09-.05-.04-.09-.09-.12-.16-.03-.07-.04-.15-.04-.26v-1.36h1.17s.03-.07.05-.12c.02-.06.03-.12.03-.19,0-.11-.03-.19-.08-.24-.06-.05-.15-.08-.28-.08h-.88v-.8s-.06-.02-.12-.04c-.06-.02-.13-.03-.2-.03-.11,0-.2.03-.27.08-.07.05-.1.13-.1.25v2.68Z"/><path class="cls-3" d="m73.37,183.37s-.03.07-.04.13c-.02.06-.02.12-.02.19,0,.11.02.19.07.25.05.07.13.1.25.1h1.22s.03-.07.04-.13c.02-.06.02-.12.02-.19,0-.1-.02-.19-.07-.25-.05-.07-.13-.1-.25-.1h-1.22Z"/><path class="cls-3" d="m75.55,185.36s.13.01.34.03.53.03.96.03c.41,0,.77-.05,1.09-.15.31-.1.58-.24.79-.43.21-.19.38-.41.48-.68.11-.27.16-.57.16-.9s-.06-.63-.17-.89c-.11-.26-.28-.49-.49-.67-.21-.18-.47-.33-.78-.43-.31-.1-.65-.15-1.04-.15-.27,0-.49,0-.66.01-.17,0-.31.03-.41.06-.1.03-.18.08-.22.14-.04.06-.06.15-.06.25v3.78Zm.72-3.56s.08-.01.19-.02c.11,0,.26-.01.45-.01.3,0,.55.04.77.11.22.08.39.18.53.31s.24.29.31.47c.07.19.1.39.1.61,0,.48-.15.85-.44,1.11-.29.26-.71.39-1.27.39-.19,0-.34,0-.44-.02-.11-.01-.17-.02-.19-.03v-2.93Z"/><path class="cls-3" d="m80.66,183.35c.04-.11.1-.21.18-.3.08-.09.17-.16.29-.21.11-.05.25-.08.4-.08.18,0,.34.04.46.12.12.08.19.19.19.35,0,.06-.01.12-.04.18-.02.06-.07.11-.15.15-.08.04-.19.08-.32.11-.14.03-.32.04-.54.04h-.26c-.08,0-.18,0-.27,0,0-.12.03-.23.07-.35Zm1.81,1.3s-.06.03-.11.06c-.05.02-.11.05-.18.07s-.15.04-.24.06c-.09.02-.19.02-.29.02-.31,0-.55-.06-.72-.19-.17-.13-.27-.3-.3-.5.08,0,.16,0,.23,0s.15,0,.23,0c.35,0,.64-.02.86-.07.23-.05.41-.11.54-.19.13-.08.23-.18.28-.3.05-.12.08-.24.08-.39s-.03-.27-.09-.39c-.06-.12-.14-.23-.25-.32-.11-.09-.25-.16-.41-.22-.16-.05-.35-.08-.56-.08-.24,0-.46.04-.66.12-.2.08-.38.19-.52.33-.15.14-.26.32-.35.52-.08.2-.12.42-.12.67,0,.26.04.48.13.68.08.2.2.36.35.5.15.14.32.24.52.31.2.07.41.1.64.1.16,0,.31-.01.45-.04.14-.02.25-.05.36-.08.1-.03.19-.07.26-.1.07-.04.12-.07.15-.09l-.26-.49Z"/><path class="cls-3" d="m83.17,185.07s.08.05.16.09c.08.04.19.08.32.12.13.04.29.08.47.11.18.03.38.05.6.05.46,0,.8-.09,1.04-.27.24-.18.36-.43.36-.73,0-.27-.09-.48-.28-.62-.19-.14-.45-.23-.79-.28l-.62-.08c-.17-.02-.29-.06-.38-.11-.09-.06-.13-.13-.13-.24,0-.25.24-.37.71-.37.17,0,.32.01.45.04.13.03.24.06.33.09.09.03.17.07.22.1.05.03.09.06.11.08.01,0,.03-.01.06-.03.02-.02.05-.04.07-.07.02-.03.04-.06.06-.1.02-.04.03-.08.03-.13,0-.15-.12-.27-.35-.36-.23-.09-.56-.14-.98-.14-.25,0-.47.03-.64.08-.18.05-.32.12-.43.21-.11.09-.19.19-.24.31-.05.12-.08.24-.08.37,0,.15.03.28.08.39.06.11.13.2.23.27.1.07.21.13.35.17.14.04.29.07.45.09l.47.06c.22.02.37.07.46.12.08.06.13.14.13.26,0,.13-.07.23-.2.28-.13.06-.31.08-.52.08-.16,0-.31-.01-.45-.04-.14-.02-.26-.05-.37-.09-.11-.03-.2-.07-.27-.1-.07-.03-.12-.06-.15-.08l-.26.47Z"/><path class="cls-3" d="m86.78,181.06c-.08.08-.12.18-.12.3s.04.22.12.3c.08.08.18.12.3.12s.22-.04.3-.12c.08-.08.12-.18.12-.3s-.04-.22-.12-.3c-.08-.08-.18-.12-.3-.12s-.22.04-.3.12Zm-.05,4.3h.69v-2.99s-.06-.02-.12-.04c-.06-.02-.13-.03-.2-.03-.12,0-.21.03-.27.08-.07.05-.1.13-.1.25v2.73Z"/><path class="cls-3" d="m89.02,184.53c-.17-.18-.26-.41-.26-.7,0-.13.02-.26.07-.38.04-.12.11-.22.19-.31s.18-.16.29-.21c.11-.05.24-.08.39-.08s.26.03.38.07c.11.05.21.12.29.2.08.09.15.19.19.31.05.12.07.25.07.39s-.02.27-.07.39c-.05.12-.11.22-.19.3-.08.08-.18.15-.29.2-.11.05-.24.07-.38.07-.28,0-.51-.09-.68-.26Zm-.66,1.88s.08.04.15.06c.07.03.16.05.26.08.11.03.23.05.36.07.14.02.29.03.45.03.25,0,.48-.03.7-.1.21-.07.4-.17.55-.32.15-.15.27-.33.36-.56.09-.23.13-.5.13-.82v-.88c0-.3-.04-.55-.12-.77-.08-.22-.19-.4-.34-.54-.15-.14-.32-.25-.51-.32-.2-.07-.41-.1-.64-.1-.24,0-.47.04-.67.12-.21.08-.38.19-.53.33-.15.14-.26.31-.34.51-.08.2-.12.41-.12.64s.04.44.12.63c.08.19.18.35.32.49s.3.24.49.32c.19.08.4.11.63.11.25,0,.46-.05.64-.15.18-.1.31-.2.4-.31v.07c0,.22-.03.41-.1.55-.07.14-.15.25-.26.33-.11.08-.23.14-.36.17-.13.03-.27.05-.41.05s-.25,0-.36-.02c-.11-.02-.21-.04-.29-.06-.08-.02-.15-.04-.21-.07-.06-.02-.09-.04-.11-.05l-.19.52Z"/><path class="cls-3" d="m91.97,185.36h.69v-1.67c0-.28.07-.49.2-.63.13-.14.33-.22.59-.22s.46.07.59.22c.13.14.2.35.2.63v1.67h.69v-1.85c0-.2-.04-.38-.11-.54-.07-.16-.18-.3-.31-.41-.13-.11-.29-.2-.47-.26-.18-.06-.38-.09-.6-.09s-.41.03-.59.09c-.18.06-.34.14-.47.26-.13.11-.24.25-.31.41-.07.16-.11.34-.11.54v1.85Z"/><path class="cls-3" d="m95.88,185.32c.09.1.21.14.33.14.06,0,.13-.01.18-.04.06-.03.11-.06.15-.1.04-.04.08-.09.1-.15.02-.06.04-.12.04-.19,0-.13-.05-.24-.14-.33-.09-.09-.2-.14-.33-.14-.07,0-.13.01-.19.04-.06.02-.11.06-.15.1-.04.04-.08.09-.1.15-.02.06-.04.12-.04.18,0,.13.05.24.14.34Z"/><path class="cls-3" d="m99.83,184.63s-.13.07-.25.12c-.12.06-.29.08-.49.08-.14,0-.28-.02-.4-.06-.12-.04-.23-.1-.32-.18-.09-.08-.17-.18-.22-.31-.05-.13-.08-.28-.08-.46s.03-.32.08-.44c.05-.12.12-.23.21-.31.09-.08.19-.14.31-.19.12-.04.25-.06.39-.06.2,0,.37.03.51.09.14.06.24.13.32.2.05-.04.1-.09.15-.16s.08-.14.08-.23c0-.06-.02-.12-.06-.18-.04-.06-.1-.12-.19-.16-.09-.05-.2-.09-.34-.12s-.31-.05-.51-.05c-.24,0-.46.03-.66.11-.21.07-.38.17-.53.31-.15.14-.27.31-.35.51-.08.2-.13.43-.13.69s.04.49.13.69c.09.2.21.37.36.5.15.14.32.24.52.31s.41.1.64.1c.15,0,.28,0,.39-.03.12-.02.22-.05.31-.08.09-.03.17-.06.24-.1.07-.03.13-.07.18-.1l-.29-.52Z"/><path class="cls-3" d="m101.65,184.76c-.12-.05-.21-.12-.3-.21-.08-.09-.15-.2-.2-.32-.05-.12-.07-.25-.07-.39s.02-.27.07-.4c.05-.12.11-.23.2-.32.08-.09.18-.16.3-.21.12-.05.25-.08.39-.08s.27.03.38.08c.12.05.22.12.3.21.08.09.15.2.19.32.05.12.07.26.07.4s-.02.27-.07.39c-.05.12-.11.22-.19.32-.08.09-.18.16-.3.21-.12.05-.25.08-.38.08s-.27-.02-.39-.08Zm-.27-2.41c-.21.08-.38.19-.53.34-.15.14-.27.31-.35.51-.08.2-.13.41-.13.64s.04.44.13.64c.08.2.2.37.35.51.15.14.33.26.53.34.21.08.43.12.66.12s.46-.04.66-.12c.21-.08.38-.2.53-.34.15-.14.27-.32.35-.51.09-.2.13-.41.13-.64s-.04-.44-.13-.64c-.08-.2-.2-.37-.35-.51-.15-.14-.33-.26-.53-.34-.2-.08-.42-.12-.66-.12s-.46.04-.66.12Z"/><path class="cls-3" d="m104.3,185.36h.69v-1.73c0-.28.07-.48.2-.6.13-.12.3-.18.51-.18s.38.07.52.2c.14.13.21.35.21.65v1.66h.69v-1.66c0-.3.07-.52.21-.65.14-.13.31-.2.52-.2s.39.06.51.18c.12.12.19.32.19.6v1.74h.69v-1.97c0-.19-.03-.37-.1-.51-.07-.15-.16-.27-.28-.37-.12-.1-.26-.17-.42-.22-.16-.05-.34-.07-.53-.07-.25,0-.47.05-.66.14-.19.09-.35.23-.47.41-.12-.18-.28-.32-.47-.41-.2-.09-.42-.14-.68-.14-.19,0-.37.03-.53.08-.16.05-.3.12-.42.22-.12.1-.21.22-.28.36-.07.15-.1.32-.1.51v1.97Z"/></g><text class="cls-12" transform="translate(28.14 68.52)"><tspan x="0" y="0">G</tspan><tspan class="cls-9" x="7.44" y="0">r</tspan><tspan x="11.62" y="0">aphic Designer</tspan></text><g class="cls-16"><path class="cls-11" d="m36.04,113.99c1.46,0,1.63,0,2.21.03,1.48.07,2.17.77,2.24,2.24.03.58.03.75.03,2.21s0,1.63-.03,2.21c-.07,1.47-.76,2.17-2.24,2.24-.58.03-.75.03-2.21.03s-1.63,0-2.21-.03c-1.49-.07-2.17-.77-2.24-2.24-.03-.58-.03-.75-.03-2.21s0-1.63.03-2.21c.07-1.47.76-2.17,2.24-2.24.58-.03.75-.03,2.21-.03m0-.99c-1.48,0-1.67,0-2.25.03-1.99.09-3.09,1.19-3.18,3.18-.03.58-.03.77-.03,2.26s0,1.67.03,2.25c.09,1.99,1.19,3.09,3.18,3.18.58.03.77.03,2.25.03s1.67,0,2.26-.03c1.99-.09,3.09-1.19,3.18-3.18.03-.58.03-.77.03-2.25s0-1.67-.03-2.26c-.09-1.99-1.19-3.09-3.18-3.18-.58-.03-.77-.03-2.26-.03m0,2.66c-1.55,0-2.81,1.26-2.81,2.81s1.26,2.81,2.81,2.81,2.81-1.26,2.81-2.81-1.26-2.81-2.81-2.81m0,4.63c-1.01,0-1.82-.82-1.82-1.82s.82-1.82,1.82-1.82,1.82.82,1.82,1.82-.82,1.82-1.82,1.82m2.92-5.4c-.36,0-.66.29-.66.66s.29.66.66.66.66-.29.66-.66-.29-.66-.66-.66"/></g><text class="cls-13" transform="translate(44.46 132.36)"><tspan x="0" y="0">monet</tspan><tspan class="cls-19" x="18.93" y="0">2</tspan><tspan class="cls-18" x="22.23" y="0">435</tspan><tspan class="cls-8" x="33.08" y="0">@</tspan><tspan class="cls-18" x="39.2" y="0">gmail.</tspan><tspan class="cls-7" x="56.82" y="0">c</tspan><tspan class="cls-5" x="59.84" y="0">om</tspan></text><text class="cls-13" transform="translate(44.46 120.37)"><tspan x="0" y="0">Kandy2099</tspan><tspan class="cls-20" x="33.63" y="0">9</tspan><tspan x="37.29" y="0">6</tspan></text><g class="cls-15"><path class="cls-11" d="m36.04,125.89c2.7,0,4.9,2.2,4.9,4.9s-2.2,4.9-4.9,4.9-4.9-2.2-4.9-4.9,2.2-4.9,4.9-4.9m0-.98c-3.25,0-5.88,2.63-5.88,5.88s2.63,5.88,5.88,5.88,5.88-2.63,5.88-5.88-2.63-5.88-5.88-5.88m0,6.15l-2.86-2.18s-.01-.06.02-.06h5.68s.04.04.02.06l-2.86,2.18Zm0,.63l-2.94-2.27v3.32h5.88v-3.32l-2.94,2.27Z"/><path class="cls-4" d="m113.09,208H13.52c-3.88,0-7.02-3.14-7.02-7.02V15.02c0-3.88,3.14-7.02,7.02-7.02h116.97c3.88,0,7.02,3.14,7.02,7.02v175.94"/><path class="cls-11" d="m33,80c-4.6,0-8.45,4.64-9.76,11-1.31-6.36-5.16-11-9.76-11,4.6,0,8.45-4.64,9.76-11,1.31,6.36,5.16,11,9.76,11"/><path class="cls-2" d="m38.62,91.81c0-2.26-1.85-4.15-4.38-4.79,2.53-.64,4.38-2.53,4.38-4.79,0,2.26,1.85,4.15,4.38,4.79-2.53.64-4.38,2.53-4.38,4.79Z"/><path class="cls-11" d="m128,76.49c-2.72,0-4.99,2.74-5.76,6.49-.77-3.75-3.04-6.49-5.76-6.49,2.72,0,4.99-2.74,5.76-6.49.77,3.75,3.04,6.49,5.76,6.49"/><path class="cls-2" d="m115.12,34c0-4.24-2.9-7.79-6.88-9,3.98-1.21,6.88-4.76,6.88-9,0,4.24,2.9,7.79,6.88,9-3.98,1.21-6.88,4.76-6.88,9Z"/></g></g></g></svg>